<?xml version="1.0" standalone="no"?>
<!DOCTYPE svg PUBLIC "-//W3C//DTD SVG 20010904//EN"
        "http://www.w3.org/TR/2001/REC-SVG-20010904/DTD/svg10.dtd">
<svg version="1.0" xmlns="http://www.w3.org/2000/svg"
     width="700.000000pt" height="700.000000pt" viewBox="0 0 700.000000 700.000000"
     preserveAspectRatio="xMidYMid meet">
    <metadata>
        Created by potrace 1.14, written by Peter Selinger 2001-2017
    </metadata>
    <g transform="translate(0.000000,700.000000) scale(0.100000,-0.100000)"
       fill="#000000" stroke="none">
        <path d="M3298 6295 c-2 -2 -37 -6 -78 -10 -302 -26 -656 -126 -935 -263 -679
-334 -1177 -890 -1428 -1597 -35 -97 -81 -259 -92 -320 -2 -16 -7 -41 -10 -55
-6 -31 -22 -122 -29 -170 -15 -93 -21 -202 -21 -380 0 -211 7 -314 32 -450 3
-19 7 -42 8 -50 24 -157 95 -396 171 -579 362 -862 1126 -1485 2049 -1670 148
-29 220 -34 535 -34 298 0 391 5 502 29 37 7 80 16 95 19 57 10 72 14 177 44
224 65 490 181 682 299 384 235 708 561 943 950 59 99 166 306 188 367 90 244
119 339 152 497 38 180 43 249 44 578 0 330 -2 360 -29 504 -9 44 -18 92 -20
106 -38 213 -200 619 -332 830 -206 330 -452 600 -737 811 -33 24 -62 46 -65
49 -3 3 -14 10 -25 17 -11 6 -58 36 -105 65 -99 62 -105 65 -231 129 -146 73
-428 179 -544 203 -151 33 -217 46 -255 51 -25 3 -58 8 -74 11 -16 3 -50 7
-75 10 -50 6 -488 14 -493 9z"/>
    </g>
</svg>
